<svg xmlns="http://www.w3.org/2000/svg" viewBox="0 0 1000 520" width="1000" height="520" role="img" aria-label="The vault&#x27;s ledger lock stays shut because order B2001 belongs to someone else"><defs>
<linearGradient id="sky" x1="0" y1="0" x2="0" y2="1"><stop offset="0" stop-color="#f9d9b5"/><stop offset="0.55" stop-color="#f6e6cf"/><stop offset="1" stop-color="#f3eee2"/></linearGradient>
<linearGradient id="dusk" x1="0" y1="0" x2="0" y2="1"><stop offset="0" stop-color="#5b5a8f"/><stop offset="0.6" stop-color="#c98a8a"/><stop offset="1" stop-color="#f1c79a"/></linearGradient>
<linearGradient id="wood" x1="0" y1="0" x2="0" y2="1"><stop offset="0" stop-color="#a8673f"/><stop offset="1" stop-color="#8a5231"/></linearGradient>
<pattern id="tiles" width="20" height="12" patternUnits="userSpaceOnUse"><rect width="20" height="12" fill="#3f4a5c"/><path d="M0,12 Q10,2 20,12" fill="none" stroke="#2c3442" stroke-width="2"/></pattern>
<pattern id="floor" width="60" height="30" patternUnits="userSpaceOnUse"><rect width="60" height="30" fill="#d9c09a"/><path d="M0,30 L60,30 M30,0 L30,30" stroke="#c4a87f" stroke-width="2"/></pattern>
</defs><title>The vault&#x27;s ledger lock stays shut because order B2001 belongs to someone else</title><rect width="1000" height="520" fill="url(#dusk)"/><circle cx="820.0" cy="104.0" r="34" fill="#fff3c9" opacity="0.9"/><path d="M0,322.4 L120.0,187.2 L220.0,260.0 L360.0,135.20000000000002 L520.0,270.40000000000003 L660.0,176.8 L800.0,260.0 L920.0,156.0 L1000,228.8 L1000,520 L0,520 Z" fill="#b9c3d6" opacity="0.8"/><path d="M320.0,156.0 L360.0,135.20000000000002 L400.0,161.2 Z M890.0,176.8 L920.0,156.0 L950.0,182.0 Z" fill="#f4f6fb"/><path d="M0,374.4 Q200.0,270.40000000000003 420.0,343.2 T1000,312.0 L1000,520 L0,520 Z" fill="#94a7a0" opacity="0.85"/><rect x="0" y="410" width="1000" height="110" fill="#d7c29b"/><path d="M0,410 L1000,410" stroke="#3a2a22" stroke-width="2" opacity="0.4"/><rect x="540" y="180" width="200" height="230" rx="12" fill="#6b6f7a" stroke="#3a2a22" stroke-width="3" /><rect x="524" y="164" width="232" height="22" rx="4" fill="#2c3442" stroke="#3a2a22" stroke-width="3" /><text x="640" y="180" font-size="13" font-weight="800" fill="#f2c14e" text-anchor="middle" font-family="'Trebuchet MS', system-ui, sans-serif" >VAULT</text><rect x="578" y="214" width="124" height="92" rx="6" fill="#2f4a2f" stroke="#3a2a22" stroke-width="3" /><rect x="584" y="220" width="112" height="80" rx="3" fill="#f3ead2" stroke="#3a2a22" stroke-width="2" /><text x="640" y="238" font-size="11" font-weight="800" fill="#3a2a22" text-anchor="middle" font-family="'Trebuchet MS', system-ui, sans-serif" >LEDGER</text><path d="M596,254 L684,254 M596,268 L670,268 M596,282 L678,282" fill="none" stroke="#3a2a22" stroke-width="1.8" stroke-linecap="round" stroke-linejoin="round" /><circle cx="640" cy="356" r="30" fill="#8a8f99" stroke="#3a2a22" stroke-width="3" /><circle cx="640" cy="356" r="9" fill="#4a4e57" stroke="#3a2a22" stroke-width="3" /><path d="M616,356 L664,356" fill="none" stroke="#3a2a22" stroke-width="5" stroke-linecap="round" stroke-linejoin="round" /><circle cx="690" cy="298" r="22" fill="#d64535" stroke="#3a2a22" stroke-width="3" /><path d="M680,288 L700,308 M700,288 L680,308" fill="none" stroke="#fff" stroke-width="5" stroke-linecap="round" stroke-linejoin="round" /><g transform="translate(330,430) scale(1.05,1.05)"><path d="M22,-30 Q70,-20 74,-70 Q62,-40 30,-48 Z" fill="#8a5a3b" stroke="#3a2a22" stroke-width="3" stroke-linecap="round" stroke-linejoin="round" /><ellipse cx="-16" cy="-4" rx="14" ry="7" fill="#8a5a3b" stroke="#3a2a22" stroke-width="3" /><ellipse cx="16" cy="-4" rx="14" ry="7" fill="#8a5a3b" stroke="#3a2a22" stroke-width="3" /><ellipse cx="0" cy="-58" rx="38" ry="54" fill="#8a5a3b" stroke="#3a2a22" stroke-width="3" /><ellipse cx="0" cy="-52" rx="24" ry="36" fill="#f3dfc4" stroke="#3a2a22" stroke-width="0" /><path d="M-36,-82 Q0,-60 36,-82 L34,-36 Q0,-24 -34,-36 Z" fill="#3f8f5a" stroke="#3a2a22" stroke-width="3" stroke-linecap="round" stroke-linejoin="round" /><path d="M-35,-52 Q0,-38 35,-52" fill="none" stroke="#e2b13c" stroke-width="7" stroke-linecap="round" stroke-linejoin="round" /><circle cx="18" cy="-46" r="5" fill="#e2b13c" stroke="#3a2a22" stroke-width="2" /><path d="M-34,-80 Q-46,-62 -18,-62" fill="none" stroke="#3a2a22" stroke-width="13" stroke-linecap="round" stroke-linejoin="round" /><path d="M-34,-80 Q-46,-62 -18,-62" fill="none" stroke="#8a5a3b" stroke-width="8" stroke-linecap="round" stroke-linejoin="round" /><path d="M34,-80 Q46,-62 18,-62" fill="none" stroke="#3a2a22" stroke-width="13" stroke-linecap="round" stroke-linejoin="round" /><path d="M34,-80 Q46,-62 18,-62" fill="none" stroke="#8a5a3b" stroke-width="8" stroke-linecap="round" stroke-linejoin="round" /><circle cx="-27" cy="-152" r="9" fill="#8a5a3b" stroke="#3a2a22" stroke-width="3" /><circle cx="27" cy="-152" r="9" fill="#8a5a3b" stroke="#3a2a22" stroke-width="3" /><circle cx="-27" cy="-152" r="4" fill="#5e3a24" stroke="#3a2a22" stroke-width="0" /><circle cx="27" cy="-152" r="4" fill="#5e3a24" stroke="#3a2a22" stroke-width="0" /><ellipse cx="0" cy="-130" rx="37" ry="32" fill="#8a5a3b" stroke="#3a2a22" stroke-width="3" /><ellipse cx="0" cy="-118" rx="23" ry="15" fill="#f3dfc4" stroke="#3a2a22" stroke-width="3" /><ellipse cx="0" cy="-127" rx="7" ry="5" fill="#2a1d17" stroke="#3a2a22" stroke-width="2" /><circle cx="-14" cy="-141" r="6" fill="#fff" stroke="#3a2a22" stroke-width="3" /><circle cx="-13" cy="-140" r="3.3000000000000003" fill="#3a2a22" stroke="#3a2a22" stroke-width="0" /><circle cx="-12.5" cy="-142.5" r="1.2000000000000002" fill="#fff" stroke="#3a2a22" stroke-width="0" /><circle cx="14" cy="-141" r="6" fill="#fff" stroke="#3a2a22" stroke-width="3" /><circle cx="15" cy="-140" r="3.3000000000000003" fill="#3a2a22" stroke="#3a2a22" stroke-width="0" /><circle cx="15.5" cy="-142.5" r="1.2000000000000002" fill="#fff" stroke="#3a2a22" stroke-width="0" /><path d="M-21,-151 L-8,-156" fill="none" stroke="#3a2a22" stroke-width="3" stroke-linecap="round" stroke-linejoin="round" /><path d="M21,-151 L8,-156" fill="none" stroke="#3a2a22" stroke-width="3" stroke-linecap="round" stroke-linejoin="round" /><path d="M-6.4,-111 Q0,-119 6.4,-111" fill="none" stroke="#3a2a22" stroke-width="3" stroke-linecap="round" stroke-linejoin="round" /><path d="M-12,-122 L-34,-126 M-12,-118 L-33,-114 M12,-122 L34,-126 M12,-118 L33,-114" fill="none" stroke="#3a2a22" stroke-width="1.6" stroke-linecap="round" stroke-linejoin="round" /></g><g transform="translate(330,378) rotate(-4)"><rect x="-75.0" y="-25.0" width="150" height="50" rx="4" fill="#f6e7c4" stroke="#3a2a22" stroke-width="3" /><rect x="-81.0" y="-32.0" width="12" height="64" rx="6" fill="#c9a96a" stroke="#3a2a22" stroke-width="3" /><rect x="69.0" y="-32.0" width="12" height="64" rx="6" fill="#c9a96a" stroke="#3a2a22" stroke-width="3" /><text x="0" y="-3.3000000000000007" font-size="12" font-weight="700" fill="#3a2a22" text-anchor="middle" font-family="ui-monospace, Menlo, monospace" >REFUND B2001</text><text x="0" y="11.7" font-size="12" font-weight="700" fill="#3a2a22" text-anchor="middle" font-family="ui-monospace, Menlo, monospace" >560 GOLD</text></g><path d="M288,108.5 L300,170.5 L312,108.5" fill="#fffdf6" stroke="#3a2a22" stroke-width="3" stroke-linecap="round" stroke-linejoin="round" /><rect x="130.0" y="30" width="340" height="80.5" rx="16" fill="#fffdf6" stroke="#3a2a22" stroke-width="3" /><path d="M290,109.0 L310,109.0" fill="none" stroke="#fffdf6" stroke-width="5" stroke-linecap="round" stroke-linejoin="round" /><text x="300" y="56.0" font-size="15" font-weight="600" fill="#3a2a22" text-anchor="middle" font-family="'Trebuchet MS', system-ui, sans-serif" >The scroll says a supervisor</text><text x="300" y="75.5" font-size="15" font-weight="600" fill="#3a2a22" text-anchor="middle" font-family="'Trebuchet MS', system-ui, sans-serif" >approved it! Why won&#x27;t</text><text x="300" y="95.0" font-size="15" font-weight="600" fill="#3a2a22" text-anchor="middle" font-family="'Trebuchet MS', system-ui, sans-serif" >the door open?</text><rect x="422.15999999999997" y="119" width="435.68000000000006" height="31" rx="10" fill="#fff8e7" stroke="#3a2a22" stroke-width="2" /><text x="640" y="141" font-size="13" font-weight="700" fill="#3a2a22" text-anchor="middle" font-family="'Trebuchet MS', system-ui, sans-serif" >Ledger: order B2001 belongs to Jordan, not this customer</text><g transform="translate(900,470) scale(-0.75,0.75)"><path d="M20,-30 Q90,-30 92,-96 Q80,-60 28,-56 Z" fill="#d9772b" stroke="#3a2a22" stroke-width="3" stroke-linecap="round" stroke-linejoin="round" /><path d="M84,-80 Q92,-92 92,-96 Q86,-74 74,-70 Z" fill="#fbf1e3" stroke="#3a2a22" stroke-width="2" stroke-linecap="round" stroke-linejoin="round" /><ellipse cx="-14" cy="-4" rx="13" ry="7" fill="#3a2a22" stroke="#3a2a22" stroke-width="3" /><ellipse cx="14" cy="-4" rx="13" ry="7" fill="#3a2a22" stroke="#3a2a22" stroke-width="3" /><path d="M-40,-6 Q-46,-60 -26,-96 L26,-96 Q46,-60 40,-6 Z" fill="#4b3a6b" stroke="#3a2a22" stroke-width="3" stroke-linecap="round" stroke-linejoin="round" /><path d="M-26,-96 Q0,-80 26,-96" fill="none" stroke="#c9a3ff" stroke-width="3" stroke-linecap="round" stroke-linejoin="round" /><path d="M-28,-88 Q-46,-64 -34,-46" fill="none" stroke="#3a2a22" stroke-width="13" stroke-linecap="round" stroke-linejoin="round" /><path d="M-28,-88 Q-46,-64 -34,-46" fill="none" stroke="#4b3a6b" stroke-width="8" stroke-linecap="round" stroke-linejoin="round" /><path d="M28,-88 Q44,-64 34,-46" fill="none" stroke="#3a2a22" stroke-width="13" stroke-linecap="round" stroke-linejoin="round" /><path d="M28,-88 Q44,-64 34,-46" fill="none" stroke="#4b3a6b" stroke-width="8" stroke-linecap="round" stroke-linejoin="round" /><path d="M-30,-140 L-38,-186 L-10,-156 Z" fill="#d9772b" stroke="#3a2a22" stroke-width="3" stroke-linecap="round" stroke-linejoin="round" /><path d="M30,-140 L38,-186 L10,-156 Z" fill="#d9772b" stroke="#3a2a22" stroke-width="3" stroke-linecap="round" stroke-linejoin="round" /><path d="M-34,-168 L-37,-184 L-26,-172 Z" fill="#3a2a22" stroke="#3a2a22" stroke-width="1" stroke-linecap="round" stroke-linejoin="round" /><path d="M34,-168 L37,-184 L26,-172 Z" fill="#3a2a22" stroke="#3a2a22" stroke-width="1" stroke-linecap="round" stroke-linejoin="round" /><path d="M-38,-138 Q-40,-160 -14,-162 L14,-162 Q40,-160 38,-138 Q30,-108 0,-100 Q-30,-108 -38,-138 Z" fill="#d9772b" stroke="#3a2a22" stroke-width="3" stroke-linecap="round" stroke-linejoin="round" /><path d="M-36,-132 Q-20,-120 -8,-112 Q0,-104 8,-112 Q20,-120 36,-132 Q30,-106 0,-100 Q-30,-106 -36,-132 Z" fill="#fbf1e3" stroke="#3a2a22" stroke-width="2" stroke-linecap="round" stroke-linejoin="round" /><ellipse cx="0" cy="-112" rx="6" ry="4.5" fill="#3a2a22" stroke="#3a2a22" stroke-width="1.5" /><circle cx="-14" cy="-138" r="9" fill="#fff" stroke="#3a2a22" stroke-width="3" /><circle cx="-13" cy="-137" r="4.95" fill="#3a2a22" stroke="#3a2a22" stroke-width="0" /><circle cx="-11.75" cy="-140.25" r="1.8" fill="#fff" stroke="#3a2a22" stroke-width="0" /><circle cx="14" cy="-138" r="9" fill="#fff" stroke="#3a2a22" stroke-width="3" /><circle cx="15" cy="-137" r="4.95" fill="#3a2a22" stroke="#3a2a22" stroke-width="0" /><circle cx="16.25" cy="-140.25" r="1.8" fill="#fff" stroke="#3a2a22" stroke-width="0" /><path d="M-21,-152 L-8,-146" fill="none" stroke="#3a2a22" stroke-width="3.5" stroke-linecap="round" stroke-linejoin="round" /><path d="M21,-152 L8,-146" fill="none" stroke="#3a2a22" stroke-width="3.5" stroke-linecap="round" stroke-linejoin="round" /><path d="M-6.4,-99 Q0,-107 6.4,-99" fill="none" stroke="#3a2a22" stroke-width="3" stroke-linecap="round" stroke-linejoin="round" /></g><rect x="234.0" y="483" width="532.0" height="33" rx="10" fill="#fff8e7" stroke="#3a2a22" stroke-width="2" /><text x="500" y="507" font-size="15" font-weight="700" fill="#3a2a22" text-anchor="middle" font-family="'Trebuchet MS', system-ui, sans-serif" >The ledger lock checks every action in code: the tool policy</text></svg>
