<svg xmlns="http://www.w3.org/2000/svg" viewBox="0 0 1000 520" width="1000" height="520" role="img" aria-label="The vault lock pauses a refund over 100 gold; Pip rings the bell and Hara approves it"><defs>
<linearGradient id="sky" x1="0" y1="0" x2="0" y2="1"><stop offset="0" stop-color="#f9d9b5"/><stop offset="0.55" stop-color="#f6e6cf"/><stop offset="1" stop-color="#f3eee2"/></linearGradient>
<linearGradient id="dusk" x1="0" y1="0" x2="0" y2="1"><stop offset="0" stop-color="#5b5a8f"/><stop offset="0.6" stop-color="#c98a8a"/><stop offset="1" stop-color="#f1c79a"/></linearGradient>
<linearGradient id="wood" x1="0" y1="0" x2="0" y2="1"><stop offset="0" stop-color="#a8673f"/><stop offset="1" stop-color="#8a5231"/></linearGradient>
<pattern id="tiles" width="20" height="12" patternUnits="userSpaceOnUse"><rect width="20" height="12" fill="#3f4a5c"/><path d="M0,12 Q10,2 20,12" fill="none" stroke="#2c3442" stroke-width="2"/></pattern>
<pattern id="floor" width="60" height="30" patternUnits="userSpaceOnUse"><rect width="60" height="30" fill="#d9c09a"/><path d="M0,30 L60,30 M30,0 L30,30" stroke="#c4a87f" stroke-width="2"/></pattern>
</defs><title>The vault lock pauses a refund over 100 gold; Pip rings the bell and Hara approves it</title><rect width="1000" height="520" fill="url(#sky)"/><circle cx="820.0" cy="104.0" r="34" fill="#fff3c9" opacity="0.9"/><path d="M0,322.4 L120.0,187.2 L220.0,260.0 L360.0,135.20000000000002 L520.0,270.40000000000003 L660.0,176.8 L800.0,260.0 L920.0,156.0 L1000,228.8 L1000,520 L0,520 Z" fill="#b9c3d6" opacity="0.8"/><path d="M320.0,156.0 L360.0,135.20000000000002 L400.0,161.2 Z M890.0,176.8 L920.0,156.0 L950.0,182.0 Z" fill="#f4f6fb"/><path d="M0,374.4 Q200.0,270.40000000000003 420.0,343.2 T1000,312.0 L1000,520 L0,520 Z" fill="#94a7a0" opacity="0.85"/><ellipse cx="196" cy="280" rx="5" ry="3" fill="#f6b7c8" transform="rotate(76 196 280)" opacity="0.85"/><ellipse cx="284" cy="168" rx="5" ry="3" fill="#f6b7c8" transform="rotate(24 284 168)" opacity="0.85"/><ellipse cx="549" cy="203" rx="5" ry="3" fill="#f6b7c8" transform="rotate(79 549 203)" opacity="0.85"/><ellipse cx="384" cy="140" rx="5" ry="3" fill="#f6b7c8" transform="rotate(54 384 140)" opacity="0.85"/><ellipse cx="261" cy="7" rx="5" ry="3" fill="#f6b7c8" transform="rotate(71 261 7)" opacity="0.85"/><ellipse cx="695" cy="133" rx="5" ry="3" fill="#f6b7c8" transform="rotate(85 695 133)" opacity="0.85"/><ellipse cx="801" cy="147" rx="5" ry="3" fill="#f6b7c8" transform="rotate(51 801 147)" opacity="0.85"/><ellipse cx="735" cy="49" rx="5" ry="3" fill="#f6b7c8" transform="rotate(55 735 49)" opacity="0.85"/><ellipse cx="287" cy="189" rx="5" ry="3" fill="#f6b7c8" transform="rotate(27 287 189)" opacity="0.85"/><ellipse cx="660" cy="252" rx="5" ry="3" fill="#f6b7c8" transform="rotate(50 660 252)" opacity="0.85"/><rect x="0" y="400" width="1000" height="120" fill="#d7c29b"/><path d="M0,400 L1000,400" stroke="#3a2a22" stroke-width="2" opacity="0.4"/><rect x="150" y="170" width="200" height="230" rx="12" fill="#6b6f7a" stroke="#3a2a22" stroke-width="3" /><rect x="134" y="154" width="232" height="22" rx="4" fill="#2c3442" stroke="#3a2a22" stroke-width="3" /><text x="250" y="170" font-size="13" font-weight="800" fill="#f2c14e" text-anchor="middle" font-family="'Trebuchet MS', system-ui, sans-serif" >VAULT</text><rect x="188" y="204" width="124" height="92" rx="6" fill="#2f4a2f" stroke="#3a2a22" stroke-width="3" /><rect x="194" y="210" width="112" height="80" rx="3" fill="#f3ead2" stroke="#3a2a22" stroke-width="2" /><text x="250" y="228" font-size="11" font-weight="800" fill="#3a2a22" text-anchor="middle" font-family="'Trebuchet MS', system-ui, sans-serif" >LEDGER</text><path d="M206,244 L294,244 M206,258 L280,258 M206,272 L288,272" fill="none" stroke="#3a2a22" stroke-width="1.8" stroke-linecap="round" stroke-linejoin="round" /><circle cx="250" cy="346" r="30" fill="#8a8f99" stroke="#3a2a22" stroke-width="3" /><circle cx="250" cy="346" r="9" fill="#4a4e57" stroke="#3a2a22" stroke-width="3" /><path d="M226,346 L274,346" fill="none" stroke="#3a2a22" stroke-width="5" stroke-linecap="round" stroke-linejoin="round" /><circle cx="300" cy="288" r="22" fill="#e7a52a" stroke="#3a2a22" stroke-width="3" /><path d="M294,278 L294,298 M306,278 L306,298" fill="none" stroke="#fff" stroke-width="5" stroke-linecap="round" stroke-linejoin="round" /><rect x="560" y="100" width="20" height="300" fill="#7a4429" stroke="#3a2a22" stroke-width="3"/><rect x="520" y="90" width="200" height="16" fill="#7a4429" stroke="#3a2a22" stroke-width="3" rx="4"/><path d="M680,120 L680,150" fill="none" stroke="#3a2a22" stroke-width="3" stroke-linecap="round" stroke-linejoin="round" /><path d="M654,190 Q654,146 680,146 Q706,146 706,190 Z" fill="#e0a43a" stroke="#3a2a22" stroke-width="3" stroke-linecap="round" stroke-linejoin="round" /><ellipse cx="680" cy="190" rx="30" ry="6" fill="#c98a2a" stroke="#3a2a22" stroke-width="3" /><circle cx="680" cy="198" r="6" fill="#8a5a2a" stroke="#3a2a22" stroke-width="3" /><path d="M636,160 Q626,176 636,192" fill="none" stroke="#3a2a22" stroke-width="3" stroke-linecap="round" stroke-linejoin="round" /><path d="M724,160 Q734,176 724,192" fill="none" stroke="#3a2a22" stroke-width="3" stroke-linecap="round" stroke-linejoin="round" /><path d="M622,152 Q608,176 622,200" fill="none" stroke="#3a2a22" stroke-width="2.5" stroke-linecap="round" stroke-linejoin="round" /><path d="M738,152 Q752,176 738,200" fill="none" stroke="#3a2a22" stroke-width="2.5" stroke-linecap="round" stroke-linejoin="round" /><path d="M680,198 Q690,280 640,330" fill="none" stroke="#c9a96a" stroke-width="4" stroke-linecap="round" stroke-linejoin="round" /><g transform="translate(470,420) scale(1.0,1.0)"><path d="M22,-30 Q70,-20 74,-70 Q62,-40 30,-48 Z" fill="#8a5a3b" stroke="#3a2a22" stroke-width="3" stroke-linecap="round" stroke-linejoin="round" /><ellipse cx="-16" cy="-4" rx="14" ry="7" fill="#8a5a3b" stroke="#3a2a22" stroke-width="3" /><ellipse cx="16" cy="-4" rx="14" ry="7" fill="#8a5a3b" stroke="#3a2a22" stroke-width="3" /><ellipse cx="0" cy="-58" rx="38" ry="54" fill="#8a5a3b" stroke="#3a2a22" stroke-width="3" /><ellipse cx="0" cy="-52" rx="24" ry="36" fill="#f3dfc4" stroke="#3a2a22" stroke-width="0" /><path d="M-36,-82 Q0,-60 36,-82 L34,-36 Q0,-24 -34,-36 Z" fill="#3f8f5a" stroke="#3a2a22" stroke-width="3" stroke-linecap="round" stroke-linejoin="round" /><path d="M-35,-52 Q0,-38 35,-52" fill="none" stroke="#e2b13c" stroke-width="7" stroke-linecap="round" stroke-linejoin="round" /><circle cx="18" cy="-46" r="5" fill="#e2b13c" stroke="#3a2a22" stroke-width="2" /><path d="M-34,-80 Q-50,-58 -40,-40" fill="none" stroke="#3a2a22" stroke-width="13" stroke-linecap="round" stroke-linejoin="round" /><path d="M-34,-80 Q-50,-58 -40,-40" fill="none" stroke="#8a5a3b" stroke-width="8" stroke-linecap="round" stroke-linejoin="round" /><path d="M32,-84 Q60,-84 80,-92" fill="none" stroke="#3a2a22" stroke-width="13" stroke-linecap="round" stroke-linejoin="round" /><path d="M32,-84 Q60,-84 80,-92" fill="none" stroke="#8a5a3b" stroke-width="8" stroke-linecap="round" stroke-linejoin="round" /><circle cx="-27" cy="-152" r="9" fill="#8a5a3b" stroke="#3a2a22" stroke-width="3" /><circle cx="27" cy="-152" r="9" fill="#8a5a3b" stroke="#3a2a22" stroke-width="3" /><circle cx="-27" cy="-152" r="4" fill="#5e3a24" stroke="#3a2a22" stroke-width="0" /><circle cx="27" cy="-152" r="4" fill="#5e3a24" stroke="#3a2a22" stroke-width="0" /><ellipse cx="0" cy="-130" rx="37" ry="32" fill="#8a5a3b" stroke="#3a2a22" stroke-width="3" /><ellipse cx="0" cy="-118" rx="23" ry="15" fill="#f3dfc4" stroke="#3a2a22" stroke-width="3" /><ellipse cx="0" cy="-127" rx="7" ry="5" fill="#2a1d17" stroke="#3a2a22" stroke-width="2" /><circle cx="-14" cy="-141" r="6" fill="#fff" stroke="#3a2a22" stroke-width="3" /><circle cx="-13" cy="-140" r="3.3000000000000003" fill="#3a2a22" stroke="#3a2a22" stroke-width="0" /><circle cx="-12.5" cy="-142.5" r="1.2000000000000002" fill="#fff" stroke="#3a2a22" stroke-width="0" /><circle cx="14" cy="-141" r="6" fill="#fff" stroke="#3a2a22" stroke-width="3" /><circle cx="15" cy="-140" r="3.3000000000000003" fill="#3a2a22" stroke="#3a2a22" stroke-width="0" /><circle cx="15.5" cy="-142.5" r="1.2000000000000002" fill="#fff" stroke="#3a2a22" stroke-width="0" /><path d="M-8,-116 Q0,-108 8,-116" fill="none" stroke="#3a2a22" stroke-width="3" stroke-linecap="round" stroke-linejoin="round" /><path d="M-12,-122 L-34,-126 M-12,-118 L-33,-114 M12,-122 L34,-126 M12,-118 L33,-114" fill="none" stroke="#3a2a22" stroke-width="1.6" stroke-linecap="round" stroke-linejoin="round" /></g><g transform="translate(470,300) rotate(-4)"><rect x="-85.0" y="-25.0" width="170" height="50" rx="4" fill="#f6e7c4" stroke="#3a2a22" stroke-width="3" /><rect x="-91.0" y="-32.0" width="12" height="64" rx="6" fill="#c9a96a" stroke="#3a2a22" stroke-width="3" /><rect x="79.0" y="-32.0" width="12" height="64" rx="6" fill="#c9a96a" stroke="#3a2a22" stroke-width="3" /><text x="0" y="-3.3000000000000007" font-size="12" font-weight="700" fill="#3a2a22" text-anchor="middle" font-family="ui-monospace, Menlo, monospace" >REFUND A1004</text><text x="0" y="11.7" font-size="12" font-weight="700" fill="#3a2a22" text-anchor="middle" font-family="ui-monospace, Menlo, monospace" >219 GOLD</text></g><g transform="translate(850,430) scale(-1.05,1.05)"><ellipse cx="-16" cy="-4" rx="12" ry="7" fill="#5a4a3a" stroke="#3a2a22" stroke-width="3" /><ellipse cx="16" cy="-4" rx="12" ry="7" fill="#5a4a3a" stroke="#3a2a22" stroke-width="3" /><path d="M-42,-6 Q-48,-80 -30,-106 L30,-106 Q48,-80 42,-6 Z" fill="#3c5a8a" stroke="#3a2a22" stroke-width="3" stroke-linecap="round" stroke-linejoin="round" /><path d="M-30,-106 L0,-64 L30,-106" fill="none" stroke="#e8d9a8" stroke-width="4" stroke-linecap="round" stroke-linejoin="round" /><rect x="-42" y="-50" width="84" height="9" rx="4" fill="#e8d9a8" stroke="#3a2a22" stroke-width="2" /><path d="M-20,-160 Q-56,-190 -62,-150 Q-60,-130 -44,-136 Q-52,-160 -24,-150" fill="#c9b48a" stroke="#3a2a22" stroke-width="3" stroke-linecap="round" stroke-linejoin="round" /><path d="M20,-160 Q56,-190 62,-150 Q60,-130 44,-136 Q52,-160 24,-150" fill="#c9b48a" stroke="#3a2a22" stroke-width="3" stroke-linecap="round" stroke-linejoin="round" /><path d="M-34,-132 L-56,-124 L-34,-118 Z" fill="#f2efe8" stroke="#3a2a22" stroke-width="3" stroke-linecap="round" stroke-linejoin="round" /><path d="M34,-132 L56,-124 L34,-118 Z" fill="#f2efe8" stroke="#3a2a22" stroke-width="3" stroke-linecap="round" stroke-linejoin="round" /><path d="M-30,-150 Q0,-170 30,-150 L26,-104 Q0,-86 -26,-104 Z" fill="#f2efe8" stroke="#3a2a22" stroke-width="3" stroke-linecap="round" stroke-linejoin="round" /><path d="M-10,-96 Q0,-60 10,-96 Z" fill="#f2efe8" stroke="#3a2a22" stroke-width="3" stroke-linecap="round" stroke-linejoin="round" /><ellipse cx="0" cy="-104" rx="9" ry="6" fill="#e6b9a6" stroke="#3a2a22" stroke-width="2" /><ellipse cx="-14" cy="-132" rx="7" ry="6" fill="#f7d36b" stroke="#3a2a22" stroke-width="3" /><rect x="-19" y="-134" width="10" height="4" rx="2" fill="#3a2a22" stroke="#3a2a22" stroke-width="0" /><ellipse cx="14" cy="-132" rx="7" ry="6" fill="#f7d36b" stroke="#3a2a22" stroke-width="3" /><rect x="9" y="-134" width="10" height="4" rx="2" fill="#3a2a22" stroke="#3a2a22" stroke-width="0" /><path d="M-6,-96 Q0,-90 6,-96" fill="none" stroke="#3a2a22" stroke-width="3" stroke-linecap="round" stroke-linejoin="round" /></g><path d="M438,79.0 L450,141.0 L462,79.0" fill="#fffdf6" stroke="#3a2a22" stroke-width="3" stroke-linecap="round" stroke-linejoin="round" /><rect x="300.0" y="20" width="260" height="61.0" rx="16" fill="#fffdf6" stroke="#3a2a22" stroke-width="3" /><path d="M440,79.5 L460,79.5" fill="none" stroke="#fffdf6" stroke-width="5" stroke-linecap="round" stroke-linejoin="round" /><text x="430" y="46.0" font-size="15" font-weight="600" fill="#3a2a22" text-anchor="middle" font-family="'Trebuchet MS', system-ui, sans-serif" >Over 100 gold: the lock</text><text x="430" y="65.5" font-size="15" font-weight="600" fill="#3a2a22" text-anchor="middle" font-family="'Trebuchet MS', system-ui, sans-serif" >says ring for Hara.</text><path d="M828,99.0 L840,151.0 L852,99.0" fill="#fffdf6" stroke="#3a2a22" stroke-width="3" stroke-linecap="round" stroke-linejoin="round" /><rect x="735.0" y="40" width="230" height="61.0" rx="16" fill="#fffdf6" stroke="#3a2a22" stroke-width="3" /><path d="M830,99.5 L850,99.5" fill="none" stroke="#fffdf6" stroke-width="5" stroke-linecap="round" stroke-linejoin="round" /><text x="850" y="66.0" font-size="15" font-weight="600" fill="#3a2a22" text-anchor="middle" font-family="'Trebuchet MS', system-ui, sans-serif" >A leaky jacket?</text><text x="850" y="85.5" font-size="15" font-weight="600" fill="#3a2a22" text-anchor="middle" font-family="'Trebuchet MS', system-ui, sans-serif" >Fair. Approved.</text><rect x="259.2" y="483" width="481.6" height="33" rx="10" fill="#fff8e7" stroke="#3a2a22" stroke-width="2" /><text x="500" y="507" font-size="15" font-weight="700" fill="#3a2a22" text-anchor="middle" font-family="'Trebuchet MS', system-ui, sans-serif" >Big or risky actions wait for a person: human approval</text></svg>
