<svg xmlns="http://www.w3.org/2000/svg" viewBox="0 0 720 400" width="720" height="400" font-family="Inter, system-ui, sans-serif" role="img" aria-label="On-time delivery by region, Q3 2026">
  <rect width="720" height="400" fill="#ffffff"/>
  <text x="32" y="38" font-size="18" font-weight="700" fill="#1f2933">On-time delivery by region, Q3 2026</text>
  <text x="32" y="60" font-size="12.5" fill="#6b7280">Share of shipments delivered within the committed window. Orange bars are below target.</text>
  <line x1="70" x2="690" y1="340.0" y2="340.0" stroke="#e5e7eb"/>
  <text x="62" y="344.0" font-size="11" fill="#6b7280" text-anchor="end">80%</text>
  <line x1="70" x2="690" y1="277.5" y2="277.5" stroke="#e5e7eb"/>
  <text x="62" y="281.5" font-size="11" fill="#6b7280" text-anchor="end">85%</text>
  <line x1="70" x2="690" y1="215.0" y2="215.0" stroke="#e5e7eb"/>
  <text x="62" y="219.0" font-size="11" fill="#6b7280" text-anchor="end">90%</text>
  <line x1="70" x2="690" y1="152.5" y2="152.5" stroke="#e5e7eb"/>
  <text x="62" y="156.5" font-size="11" fill="#6b7280" text-anchor="end">95%</text>
  <line x1="70" x2="690" y1="90.0" y2="90.0" stroke="#e5e7eb"/>
  <text x="62" y="94.0" font-size="11" fill="#6b7280" text-anchor="end">100%</text>
  <rect x="91.7" y="126.3" width="60" height="213.7" rx="3" fill="#3b6fb6"/>
  <text x="121.7" y="119.3" font-size="12" font-weight="600" fill="#1f2933" text-anchor="middle">97.1%</text>
  <text x="121.7" y="358" font-size="11.5" fill="#1f2933" text-anchor="middle">US East</text>
  <rect x="195.0" y="135.0" width="60" height="205.0" rx="3" fill="#3b6fb6"/>
  <text x="225.0" y="128.0" font-size="12" font-weight="600" fill="#1f2933" text-anchor="middle">96.4%</text>
  <text x="225.0" y="358" font-size="11.5" fill="#1f2933" text-anchor="middle">US Central</text>
  <rect x="298.3" y="152.5" width="60" height="187.5" rx="3" fill="#3b6fb6"/>
  <text x="328.3" y="145.5" font-size="12" font-weight="600" fill="#1f2933" text-anchor="middle">95.0%</text>
  <text x="328.3" y="358" font-size="11.5" fill="#1f2933" text-anchor="middle">US West</text>
  <rect x="401.7" y="166.2" width="60" height="173.8" rx="3" fill="#d08a3c"/>
  <text x="431.7" y="159.2" font-size="12" font-weight="600" fill="#1f2933" text-anchor="middle">93.9%</text>
  <text x="431.7" y="358" font-size="11.5" fill="#1f2933" text-anchor="middle">EU West</text>
  <rect x="505.0" y="205.0" width="60" height="135.0" rx="3" fill="#d08a3c"/>
  <text x="535.0" y="198.0" font-size="12" font-weight="600" fill="#1f2933" text-anchor="middle">90.8%</text>
  <text x="535.0" y="358" font-size="11.5" fill="#1f2933" text-anchor="middle">Canada West</text>
  <rect x="608.3" y="262.5" width="60" height="77.5" rx="3" fill="#d08a3c"/>
  <text x="638.3" y="255.5" font-size="12" font-weight="600" fill="#1f2933" text-anchor="middle">86.2%</text>
  <text x="638.3" y="358" font-size="11.5" fill="#1f2933" text-anchor="middle">Mexico North</text>
  <line x1="70" x2="690" y1="165.0" y2="165.0" stroke="#b42318" stroke-width="1.5" stroke-dasharray="6 4"/>
  <text x="690" y="159.0" font-size="11" font-weight="600" fill="#b42318" text-anchor="end">Target 94%</text>
  <text x="380.0" y="380" font-size="11.5" fill="#6b7280" text-anchor="middle">Region</text>
  <text x="20" y="215.0" font-size="11.5" fill="#6b7280" text-anchor="middle" transform="rotate(-90 20 215.0)">On-time delivery (%)</text>
</svg>
